# xmcd
#
# Track frame offsets:
#	150
#	26997
#	48720
#	69100
#	90115
#	113020
#	131047
#	162182
#	179685
#	215965
#
# Disc length: 3281 seconds
#
# Revision: 0
# Processed by: cddbd v1.4PL0 Copyright (c) Steve Scherf et al.
# Submitted via: dBpowerAMP V4.0
#
DISCID=8d0ccf0a
DTITLE=Tony Malo and S.G. - On The Rock
DYEAR=1996
DGENRE=Blues
TTITLE0=Titanic Going Down
TTITLE1=Jake and Jenny
TTITLE2=Mesin' Round at Midnight
TTITLE3=Kids
TTITLE4=Round Again
TTITLE5=Footsteps
TTITLE6=Just a Blues
TTITLE7=Stone Walls
TTITLE8=Where Geronimo Died
TTITLE9=Titanic Reprise
EXTD=All Songs Malo/Oswold\nEngineered by Martin White\nContact: The Den, 36 Meadow Road, East Cowes, Isle of wight UK
EXTT0=
EXTT1=
EXTT2=
EXTT3=
EXTT4=
EXTT5=
EXTT6=
EXTT7=
EXTT8=
EXTT9=
PLAYORDER=
